<?xml version="1.0" encoding="utf-8"?>
<!-- Generator: Adobe Illustrator 19.0.0, SVG Export Plug-In . SVG Version: 6.00 Build 0)  -->
<svg version="1.1" id="Capa_1" xmlns="http://www.w3.org/2000/svg" xmlns:xlink="http://www.w3.org/1999/xlink" x="0px" y="0px"
	 viewBox="-111 5 32 32" style="enable-background:new -111 5 32 32;" xml:space="preserve">
<style type="text/css">
	.st0{fill:#FFFFFF;}
</style>
<path class="st0" d="M-100.8,19.3v3.5h5.8c-0.2,1.5-1.7,4.4-5.8,4.4c-3.5,0-6.3-2.9-6.3-6.4s2.8-6.4,6.3-6.4c2,0,3.3,0.8,4.1,1.6
	l2.8-2.7c-1.8-1.7-4.1-2.7-6.8-2.7c-5.6,0-10.2,4.6-10.2,10.2s4.6,10.2,10.2,10.2c5.9,0,9.8-4.1,9.8-9.9c0-0.7-0.1-1.2-0.2-1.7
	L-100.8,19.3L-100.8,19.3z"/>
<path class="st0" d="M-79,19h-3v-3h-3v3h-3v3h3v3h3v-3h3V19z"/>
</svg>
